<svg width="36" height="36" viewBox="0 0 36 36" fill="none" xmlns="http://www.w3.org/2000/svg">
<rect width="36" height="36" fill="#64B5F6"/>
<path d="M19 15H17V13H19M19 23H17V17H19M18 8C16.6868 8 15.3864 8.25866 14.1732 8.7612C12.9599 9.26375 11.8575 10.0003 10.9289 10.9289C9.05357 12.8043 8 15.3478 8 18C8 20.6522 9.05357 23.1957 10.9289 25.0711C11.8575 25.9997 12.9599 26.7362 14.1732 27.2388C15.3864 27.7413 16.6868 28 18 28C20.6522 28 23.1957 26.9464 25.0711 25.0711C26.9464 23.1957 28 20.6522 28 18C28 16.6868 27.7413 15.3864 27.2388 14.1732C26.7362 12.9599 25.9997 11.8575 25.0711 10.9289C24.1425 10.0003 23.0401 9.26375 21.8268 8.7612C20.6136 8.25866 19.3132 8 18 8Z" fill="white"/>
</svg>
