<svg width="11" height="19" viewBox="0 0 11 19" fill="none" xmlns="http://www.w3.org/2000/svg">
<path d="M2.14998 0.374981L10.575 8.77498C10.675 8.87498 10.7456 8.98331 10.787 9.09998C10.829 9.21665 10.85 9.34165 10.85 9.47498C10.85 9.60831 10.829 9.73331 10.787 9.84998C10.7456 9.96665 10.675 10.075 10.575 10.175L2.14998 18.6C1.91664 18.8333 1.62498 18.95 1.27498 18.95C0.924976 18.95 0.624976 18.825 0.374976 18.575C0.124976 18.325 -2.38419e-05 18.0333 -2.38419e-05 17.7C-2.38419e-05 17.3666 0.124976 17.075 0.374976 16.825L7.72498 9.47498L0.374976 2.12498C0.141643 1.89165 0.0249758 1.60431 0.0249758 1.26298C0.0249758 0.920981 0.149976 0.624981 0.399976 0.374981C0.649976 0.124981 0.941642 -1.90735e-05 1.27498 -1.90735e-05C1.60831 -1.90735e-05 1.89998 0.124981 2.14998 0.374981Z" fill="#FB8D03"/>
</svg>
