<svg width="90" height="90" viewBox="0 0 90 90" fill="none" xmlns="http://www.w3.org/2000/svg">
<path d="M61.25 57.1667H32.6667V49H61.25M73.5 40.8333H32.6667V32.6667H73.5M73.5 24.5H32.6667V16.3333H73.5M81.6667 0H24.5C19.9675 0 16.3333 3.63417 16.3333 8.16667V65.3333C16.3333 67.4993 17.1937 69.5765 18.7253 71.108C20.2568 72.6396 22.3341 73.5 24.5 73.5H81.6667C86.1992 73.5 89.8333 69.8658 89.8333 65.3333V8.16667C89.8333 6.00073 88.9729 3.92351 87.4414 2.39196C85.9098 0.860414 83.8326 0 81.6667 0ZM8.16667 16.3333V81.6667H73.5V89.8333H8.16667C6.00073 89.8333 3.92351 88.9729 2.39196 87.4414C0.860414 85.9098 0 83.8326 0 81.6667V16.3333H8.16667Z" fill="white" fill-opacity="0.7"/>
</svg>
