<svg width="26" height="23" viewBox="0 0 26 23" fill="none" xmlns="http://www.w3.org/2000/svg">
<g clip-path="url(#clip0_19_45687)">
<path fill-rule="evenodd" clip-rule="evenodd" d="M10 1H16C18.2091 1 20 2.79086 20 5V10H6V5C6 2.79086 7.79086 1 10 1ZM5 10V5C5 2.23858 7.23858 0 10 0H16C18.7614 0 21 2.23858 21 5V10H24.9737H26L25.7692 11L23 23H3L0.230769 11L0 10H1.02628H5ZM21 11H20H19V14H24.0506L24.7429 11H21ZM18 11V14H13V11H18ZM18 15H13V18H18V15ZM18 19H13V22H18V19ZM12 18V15H7V18H12ZM7 19H12V22H7V19ZM6 18V15H2.18013L2.87244 18H6ZM3.1032 19H6V22H3.79551L3.1032 19ZM19 19H22.8968L22.2045 22H19V19ZM23.1276 18H19V15H23.8199L23.1276 18ZM12 11V14H7V11H12ZM6 11V14H1.94936L1.25705 11H5H6Z" fill="#949494"/>
</g>
<defs>
<clipPath id="clip0_19_45687">
<rect width="26" height="23" fill="white"/>
</clipPath>
</defs>
</svg>
