<svg width="25" height="25" viewBox="0 0 25 25" fill="none" xmlns="http://www.w3.org/2000/svg">
<g clip-path="url(#clip0_19_45686)">
<path fill-rule="evenodd" clip-rule="evenodd" d="M24 12.5C24 18.8513 18.8513 24 12.5 24C6.14873 24 1 18.8513 1 12.5C1 6.14873 6.14873 1 12.5 1C18.8513 1 24 6.14873 24 12.5ZM25 12.5C25 19.4036 19.4036 25 12.5 25C5.59644 25 0 19.4036 0 12.5C0 5.59644 5.59644 0 12.5 0C19.4036 0 25 5.59644 25 12.5ZM12.4319 6L12.8638 6.74038L16.5107 12.9923H20.4319V14.9923H17.6774L19.8638 18.7404L19 19.2443L16.5197 14.9923H8.34408L5.86378 19.2443L5 18.7404L7.18637 14.9923H5.43189V12.9923H8.35304L12 6.74038L12.4319 6ZM12.4319 7.98463L15.353 12.9923H9.51074L12.4319 7.98463Z" fill="#949494"/>
</g>
<defs>
<clipPath id="clip0_19_45686">
<rect width="25" height="25" fill="white"/>
</clipPath>
</defs>
</svg>
