<svg width="18" height="18" viewBox="0 0 18 18" fill="none" xmlns="http://www.w3.org/2000/svg">
<path d="M3.88889 15.2222C3.88889 16.2 4.68889 17 5.66667 17H12.7778C13.7556 17 14.5556 16.2 14.5556 15.2222V6.33333C14.5556 5.35556 13.7556 4.55556 12.7778 4.55556H5.66667C4.68889 4.55556 3.88889 5.35556 3.88889 6.33333V15.2222ZM14.5556 1.88889H12.3333L11.7022 1.25778C11.5422 1.09778 11.3111 1 11.08 1H7.36444C7.13333 1 6.90222 1.09778 6.74222 1.25778L6.11111 1.88889H3.88889C3.4 1.88889 3 2.28889 3 2.77778C3 3.26667 3.4 3.66667 3.88889 3.66667H14.5556C15.0444 3.66667 15.4444 3.26667 15.4444 2.77778C15.4444 2.28889 15.0444 1.88889 14.5556 1.88889Z" fill="#FB4646"/>
</svg>
