<svg width="24" height="24" viewBox="0 0 24 24" fill="none" xmlns="http://www.w3.org/2000/svg">
<g clip-path="url(#clip0_6_15)">
<path d="M1.50017 0C0.895481 0 0.347043 0.365625 0.112668 0.928125C-0.121707 1.49062 0.00954311 2.13281 0.436106 2.56406L10.5002 12.6234V21H7.50017C6.67048 21 6.00017 21.6703 6.00017 22.5C6.00017 23.3297 6.67048 24 7.50017 24H16.5002C17.3299 24 18.0002 23.3297 18.0002 22.5C18.0002 21.6703 17.3299 21 16.5002 21H13.5002V12.6234L23.5595 2.55937C23.9908 2.12812 24.1174 1.48594 23.883 0.923438C23.6486 0.360938 23.1049 0 22.5002 0H1.50017ZM8.12361 6L5.12361 3H18.8767L15.8767 6H8.12361Z" fill="black"/>
</g>
<defs>
<clipPath id="clip0_6_15">
<rect width="24" height="24" fill="white"/>
</clipPath>
</defs>
</svg>
