<svg width="18" height="18" viewBox="0 0 18 18" fill="none" xmlns="http://www.w3.org/2000/svg">
<path d="M15.7391 12.5213C15.0812 11.7211 14.1804 10.5881 14.1804 9.43222V5.75121C14.1804 2.58007 11.8086 0 8.77787 0C5.74653 0 3.39333 2.58009 3.39333 5.75121V9.43222C3.39333 10.5687 2.41584 11.6428 1.79606 12.4762C1.23854 13.2251 0.798584 13.8167 1.09566 14.4081C1.35694 14.9284 2.01112 14.9952 2.5517 14.9952H5.78174C5.78259 16.6547 7.12844 18 8.78828 18C10.4484 18 11.7943 16.6547 11.7951 14.9952H15.101C15.4448 14.9952 16.2487 14.9952 16.5254 14.4103C16.8048 13.8181 16.3577 13.2739 15.7391 12.5213L15.7391 12.5213ZM8.78771 16.8191C7.77981 16.8191 6.96215 16.0025 6.96074 14.9952H10.6147C10.6133 16.0025 9.79619 16.8191 8.78771 16.8191ZM15.101 13.795H2.55168C2.46543 13.795 2.3933 13.7922 2.33382 13.7885C2.44995 13.6087 2.62045 13.379 2.75912 13.1921C3.44602 12.269 4.59373 10.966 4.59373 9.43247V5.75146C4.59373 3.24183 6.40887 1.20036 8.77787 1.20036C11.1469 1.20036 12.9803 3.24183 12.9803 5.75146V9.43247C12.9803 11.0182 14.0387 12.3435 14.8118 13.2834C14.942 13.4419 15.0979 13.6315 15.2191 13.7936C15.1833 13.7944 15.1438 13.795 15.101 13.795L15.101 13.795Z" fill="white"/>
</svg>
