<svg width="10" height="11" viewBox="0 0 10 11" fill="none" xmlns="http://www.w3.org/2000/svg">
<path d="M2.94058 4.022C2.57658 4.022 2.24058 3.93333 1.93258 3.756C1.63391 3.57867 1.39591 3.34067 1.21858 3.042C1.04124 2.74333 0.952578 2.40733 0.952578 2.034C0.952578 1.66067 1.04124 1.32933 1.21858 1.04C1.39591 0.741333 1.63391 0.503333 1.93258 0.325999C2.23124 0.148666 2.56724 0.0599995 2.94058 0.0599995C3.31391 0.0599995 3.64991 0.148666 3.94858 0.325999C4.25658 0.503333 4.49924 0.741333 4.67658 1.04C4.85391 1.32933 4.94258 1.66067 4.94258 2.034C4.94258 2.40733 4.85391 2.74333 4.67658 3.042C4.49924 3.34067 4.26124 3.57867 3.96258 3.756C3.66391 3.93333 3.32324 4.022 2.94058 4.022ZM2.94058 2.832C3.17391 2.832 3.36058 2.75733 3.50058 2.608C3.64058 2.45867 3.71058 2.26733 3.71058 2.034C3.71058 1.80067 3.63591 1.614 3.48658 1.474C3.34658 1.32467 3.16458 1.25 2.94058 1.25C2.71658 1.25 2.53458 1.32467 2.39458 1.474C2.25458 1.614 2.18458 1.80067 2.18458 2.034C2.18458 2.26733 2.25458 2.45867 2.39458 2.608C2.53458 2.75733 2.71658 2.832 2.94058 2.832ZM7.04258 10.14C6.67858 10.14 6.34258 10.0513 6.03458 9.874C5.73591 9.69667 5.49791 9.45867 5.32058 9.16C5.14324 8.86133 5.05458 8.52533 5.05458 8.152C5.05458 7.77867 5.14324 7.44733 5.32058 7.158C5.49791 6.85933 5.73591 6.62133 6.03458 6.444C6.33325 6.26667 6.66925 6.178 7.04258 6.178C7.41591 6.178 7.75191 6.26667 8.05058 6.444C8.35858 6.62133 8.60125 6.85933 8.77858 7.158C8.95591 7.44733 9.04458 7.77867 9.04458 8.152C9.04458 8.52533 8.95591 8.86133 8.77858 9.16C8.60125 9.45867 8.36325 9.69667 8.06458 9.874C7.76591 10.0513 7.42525 10.14 7.04258 10.14ZM7.04258 8.95C7.27591 8.95 7.46258 8.87533 7.60258 8.726C7.75191 8.57667 7.82658 8.38533 7.82658 8.152C7.82658 7.928 7.75191 7.74133 7.60258 7.592C7.45325 7.44267 7.26658 7.368 7.04258 7.368C6.81858 7.368 6.63658 7.44267 6.49658 7.592C6.35658 7.74133 6.28658 7.928 6.28658 8.152C6.28658 8.38533 6.35658 8.57667 6.49658 8.726C6.63658 8.87533 6.81858 8.95 7.04258 8.95ZM1.09258 10L7.37858 0.199999H8.90458L2.61858 10H1.09258Z" fill="#FFA127"/>
</svg>
