<svg width="36" height="36" viewBox="0 0 36 36" fill="none" xmlns="http://www.w3.org/2000/svg">
<rect width="36" height="36" fill="#FF7BAC"/>
<path fill-rule="evenodd" clip-rule="evenodd" d="M16.5786 5.14268L16.5777 5.13334L18 5L19.4223 5.13334L19.4214 5.14268C22.6857 5.80125 25.1429 8.68696 25.1429 12.1441C25.1429 13.7127 25.8571 20.7155 28 22.1441H22.2856C22.2846 23.7215 20.3662 25 17.9999 25C15.6336 25 13.7152 23.7215 13.7142 22.1441H8C10.1429 20.7155 10.8571 13.7127 10.8571 12.1441C10.8574 10.4964 11.427 8.89931 12.4697 7.62339C13.5123 6.34748 14.9639 5.47111 16.5786 5.14268Z" fill="white"/>
<path d="M28 36C28 33.6131 26.9464 31.3239 25.0711 29.636C23.1957 27.9482 20.6522 27 18 27C15.3478 27 12.8043 27.9482 10.9289 29.636C9.05357 31.3239 8 33.6131 8 36L18 36H28Z" fill="white"/>
</svg>
