<svg width="81" height="73" viewBox="0 0 81 73" fill="none" xmlns="http://www.w3.org/2000/svg">
<path d="M4.05 0H76.95C78.0241 0 79.0543 0.426695 79.8138 1.18622C80.5733 1.94574 81 2.97587 81 4.05V68.85C81 69.9241 80.5733 70.9543 79.8138 71.7138C79.0543 72.4733 78.0241 72.9 76.95 72.9H4.05C2.97587 72.9 1.94574 72.4733 1.18622 71.7138C0.426695 70.9543 0 69.9241 0 68.85V4.05C0 2.97587 0.426695 1.94574 1.18622 1.18622C1.94574 0.426695 2.97587 0 4.05 0ZM8.1 8.1V64.8H72.9V8.1H8.1ZM26.325 44.55H48.6C49.1371 44.55 49.6521 44.3367 50.0319 43.9569C50.4117 43.5771 50.625 43.0621 50.625 42.525C50.625 41.9879 50.4117 41.4729 50.0319 41.0931C49.6521 40.7133 49.1371 40.5 48.6 40.5H32.4C29.7147 40.5 27.1394 39.4333 25.2405 37.5345C23.3417 35.6357 22.275 33.0603 22.275 30.375C22.275 27.6897 23.3417 25.1144 25.2405 23.2155C27.1394 21.3167 29.7147 20.25 32.4 20.25H36.45V12.15H44.55V20.25H54.675V28.35H32.4C31.8629 28.35 31.3479 28.5633 30.9681 28.9431C30.5883 29.3229 30.375 29.8379 30.375 30.375C30.375 30.9121 30.5883 31.4271 30.9681 31.8069C31.3479 32.1867 31.8629 32.4 32.4 32.4H48.6C51.2853 32.4 53.8607 33.4667 55.7595 35.3655C57.6583 37.2644 58.725 39.8397 58.725 42.525C58.725 45.2103 57.6583 47.7857 55.7595 49.6845C53.8607 51.5833 51.2853 52.65 48.6 52.65H44.55V60.75H36.45V52.65H26.325V44.55Z" fill="white" fill-opacity="0.7"/>
</svg>
