<svg width="18" height="18" viewBox="0 0 18 18" fill="none" xmlns="http://www.w3.org/2000/svg">
<g clip-path="url(#clip0_4_23)">
<path d="M12.4968 10.9974H11.7071L11.4272 10.7275C12.0519 10.0017 12.5085 9.14683 12.7643 8.22401C13.02 7.30119 13.0687 6.33325 12.9067 5.38945C12.4368 2.61047 10.1177 0.391295 7.31873 0.0514206C6.33471 -0.0730676 5.33525 0.0292005 4.39684 0.350399C3.45842 0.671598 2.60592 1.20321 1.90457 1.90457C1.20321 2.60592 0.671597 3.45842 0.350399 4.39684C0.0292005 5.33525 -0.0730676 6.33471 0.0514206 7.31873C0.391295 10.1177 2.61047 12.4368 5.38945 12.9067C6.33325 13.0687 7.30119 13.02 8.22401 12.7643C9.14683 12.5085 10.0017 12.0519 10.7275 11.4272L10.9974 11.7071V12.4968L15.2458 16.7452C15.6556 17.1551 16.3254 17.1551 16.7352 16.7452C17.1451 16.3354 17.1451 15.6656 16.7352 15.2558L12.4968 10.9974ZM6.49904 10.9974C4.00996 10.9974 2.0007 8.98812 2.0007 6.49904C2.0007 4.00996 4.00996 2.0007 6.49904 2.0007C8.98811 2.0007 10.9974 4.00996 10.9974 6.49904C10.9974 8.98812 8.98811 10.9974 6.49904 10.9974Z" fill="black"/>
</g>
<defs>
<clipPath id="clip0_4_23">
<rect width="18" height="18" fill="white"/>
</clipPath>
</defs>
</svg>
