<svg width="24" height="22" viewBox="0 0 24 22" fill="none" xmlns="http://www.w3.org/2000/svg">
<path fill-rule="evenodd" clip-rule="evenodd" d="M10.7904 10.1694C4.83101 10.1694 0 15.0004 0 20.9598C0 21.2909 0.268389 21.5593 0.599464 21.5593H19C21.7614 21.5593 24 19.3207 24 16.5593V11.4326C24 10.735 23.4345 10.1694 22.7368 10.1694H10.7904ZM10.9831 14.2373H8.13559V17.0847H10.9831V14.2373ZM15.4576 14.2373H18.3051V17.0847H15.4576V14.2373ZM14.6441 14.2373H11.7966V17.0847H14.6441V14.2373Z" fill="black"/>
<rect x="9.35596" width="14.6441" height="2.44068" rx="1.22034" fill="black"/>
<rect x="21.5591" y="15.8644" width="14.6441" height="2.44068" rx="1.22034" transform="rotate(-90 21.5591 15.8644)" fill="black"/>
</svg>
