<svg width="18" height="18" viewBox="0 0 18 18" fill="none" xmlns="http://www.w3.org/2000/svg">
<g clip-path="url(#clip0_109_1443)">
<path d="M14.5125 7.53C14.2606 6.25329 13.5732 5.10364 12.5678 4.27743C11.5624 3.45122 10.3013 2.99971 9 3C6.8325 3 4.95 4.23 4.0125 6.03C2.91018 6.14912 1.89075 6.67141 1.15012 7.49649C0.409478 8.32158 -0.000128776 9.39126 3.03696e-08 10.5C3.03696e-08 12.9825 2.0175 15 4.5 15H14.25C16.32 15 18 13.32 18 11.25C18 9.27 16.4625 7.665 14.5125 7.53ZM10.5 9.75V12.75H7.5V9.75H5.25L9 6L12.75 9.75H10.5Z" fill="#FF9100"/>
</g>
<defs>
<clipPath id="clip0_109_1443">
<rect width="18" height="18" fill="white"/>
</clipPath>
</defs>
</svg>
